<?xml version="1.0" encoding="UTF-8"?>
<svg version="1.1" xmlns="http://www.w3.org/2000/svg" width="256" height="256">
<path d="M0 0 C84.48 0 168.96 0 256 0 C256 84.48 256 168.96 256 256 C171.52 256 87.04 256 0 256 C0 171.52 0 87.04 0 0 Z " fill="#000000" transform="translate(0,0)"/>
<path d="M0 0 C4.303028 2.97495562 8.52652868 6.04839651 12.69921875 9.203125 C13.63507813 9.90308594 14.5709375 10.60304688 15.53515625 11.32421875 C17.67759326 13.18434908 19.00815993 14.83734731 20.44921875 17.265625 C20.8565625 17.93722656 21.26390625 18.60882813 21.68359375 19.30078125 C23.8356235 23.33169852 23.78397961 26.71079942 23.69921875 31.203125 C24.87484375 31.0484375 24.87484375 31.0484375 26.07421875 30.890625 C32.07428906 31.40787244 37.35243554 33.81786994 41.60546875 38.140625 C47.49298032 45.75975761 48.74605251 52.64798279 47.69921875 62.203125 C45.43170493 70.06237192 40.32041768 75.57735588 33.69921875 80.203125 C29.83840551 82.06356665 26.79140364 82.44048643 22.5234375 82.3984375 C20.78803711 82.38876953 20.78803711 82.38876953 19.01757812 82.37890625 C17.22030273 82.35376953 17.22030273 82.35376953 15.38671875 82.328125 C13.56043945 82.31458984 13.56043945 82.31458984 11.69726562 82.30078125 C8.69771601 82.27725537 5.69856831 82.24438153 2.69921875 82.203125 C2.69510986 81.32052002 2.69100098 80.43791504 2.68676758 79.52856445 C2.65971891 76.2383646 2.61056924 72.95001102 2.54663086 69.66040039 C2.52350372 68.23961798 2.50906749 66.81866542 2.50366211 65.39770508 C2.49433214 63.34870034 2.45326709 61.3023515 2.40625 59.25390625 C2.39053955 58.02325439 2.3748291 56.79260254 2.35864258 55.5246582 C1.31359271 50.26071765 -1.88822187 48.24165035 -6.0612793 45.17358398 C-7.05168213 44.52204346 -8.04208496 43.87050293 -9.0625 43.19921875 C-9.60663544 42.83885025 -10.15077087 42.47848175 -10.71139526 42.10719299 C-12.46686633 40.94627775 -14.2275233 39.79350187 -15.98828125 38.640625 C-17.20149515 37.83980542 -18.41430188 37.03836864 -19.62670898 36.23632812 C-22.04512709 34.63754126 -24.46540843 33.04164974 -26.88769531 31.44873047 C-31.5546246 28.37949898 -36.21066668 25.29400238 -40.86328125 22.203125 C-41.59957764 21.7177124 -42.33587402 21.2322998 -43.09448242 20.73217773 C-45.68320754 19.015214 -48.09798349 17.40592276 -50.30078125 15.203125 C-50.30078125 9.89228808 -46.68506092 5.96343575 -43.30078125 2.203125 C-30.69091118 -9.83970594 -13.95767732 -9.32747163 0 0 Z " fill="#FAFAFA" transform="translate(141.30078125,64.796875)"/>
<path d="M0 0 C3.49468646 1.29748626 6.50084812 2.82270406 9.6171875 4.86328125 C10.47183594 5.42080078 11.32648438 5.97832031 12.20703125 6.55273438 C13.08746094 7.13345703 13.96789062 7.71417969 14.875 8.3125 C15.74769531 8.88162109 16.62039062 9.45074219 17.51953125 10.03710938 C20.02371514 11.6770674 22.5221243 13.32049822 25 15 C25.60664993 15.30188736 26.21329987 15.60377472 26.83833313 15.91481018 C28.97026489 17.10584418 30.42296003 18.1260772 32 20 C32.97421335 23.81429669 32.81604063 27.51098368 32.68359375 31.42578125 C32.67368912 32.52850876 32.66378448 33.63123627 32.65357971 34.76737976 C32.61444542 38.28378209 32.52661747 41.79704395 32.4375 45.3125 C32.40238526 47.69852258 32.37044655 50.08459416 32.34179688 52.47070312 C32.26468678 58.31487059 32.14760579 64.15721097 32 70 C27.73191077 67.6083017 23.62178287 65.15144747 19.6015625 62.35546875 C18.62703125 61.67806641 17.6525 61.00066406 16.6484375 60.30273438 C15.65070313 59.60470703 14.65296875 58.90667969 13.625 58.1875 C12.635 57.50107422 11.645 56.81464844 10.625 56.10742188 C-9.68426624 41.94720129 -9.68426624 41.94720129 -13 32 C-13.75583871 22.99472169 -13.95610388 15.27182279 -8 8 C-5.44759676 5.19754616 -2.80221322 2.55189144 0 0 Z " fill="#FBFCFB" transform="translate(81,87)"/>
<path d="M0 0 C9.03752736 4.51876368 9.03752736 4.51876368 12 8 C13.09559739 11.9287587 12.93553411 15.68952033 12.78125 19.7421875 C12.76993042 20.86569611 12.75861084 21.98920471 12.74694824 23.14675903 C12.70227156 26.72459607 12.60191442 30.29838076 12.5 33.875 C12.45986224 36.3046295 12.423362 38.73432201 12.390625 41.1640625 C12.30256506 47.11075053 12.16881294 53.0550858 12 59 C12.72227783 58.54036865 13.44455566 58.0807373 14.1887207 57.60717773 C20.79248047 53.40478516 27.39624023 49.20239258 34 45 C35.02044607 51.00262392 35.94045632 57.10351661 34 63 C30.18426012 67.86525576 24.50348977 70.75512853 19.18945312 73.73339844 C16.08922708 75.52688335 13.30070959 77.59884515 10.4375 79.75 C9.56996094 80.38421875 8.70242187 81.0184375 7.80859375 81.671875 C7.21175781 82.11015625 6.61492187 82.5484375 6 83 C5.46705322 82.64010986 4.93410645 82.28021973 4.38500977 81.90942383 C0.29436543 79.1627029 -3.8175321 76.49717874 -8.03515625 73.94921875 C-20.97328273 65.75092635 -20.97328273 65.75092635 -22.86035156 60.69482422 C-23.6322468 55.66515486 -23.02491022 50.95073591 -22 46 C-17 48 -17 48 -1 60 C-0.67 40.2 -0.34 20.4 0 0 Z " fill="#F6F6F5" transform="translate(123,114)"/>
</svg>
